<?xml version="1.0" encoding="UTF-8"?>
<svg width="1367px" height="260px" viewBox="0 0 1367 260" version="1.1" xmlns="http://www.w3.org/2000/svg" xmlns:xlink="http://www.w3.org/1999/xlink">
    <!-- Generator: Sketch 51.3 (57544) - http://www.bohemiancoding.com/sketch -->
    <title>Artboard Copy 2</title>
    <desc>Created with Sketch.</desc>
    <defs></defs>
    <g id="Artboard-Copy-2" stroke="none" stroke-width="1" fill="none" fill-rule="evenodd">
        <path d="M0.5,0.5 L0.5,259.5 L634.5,259.5 L634.5,0.5 L0.5,0.5 Z M104.766602,129.166025 L104.766602,180.749023 C104.766602,185.966012 105.138287,189.750445 105.871528,192.083485 C106.581783,194.343387 107.869378,195.869426 109.748992,196.69773 C111.696947,197.556151 114.873336,198.093952 119.260357,198.29643 L119.737305,198.318443 L119.737305,203.525625 L119.212336,203.499376 C111.019009,203.08971 99.33719,202.884766 84.1689453,202.884766 C67.2235995,202.884766 54.7554208,203.089722 46.7677949,203.499344 L46.2421875,203.526298 L46.2421875,198.318109 L46.7194837,198.296414 C51.1746932,198.093905 54.3854977,197.555969 56.3330388,196.69773 C58.2106353,195.870315 59.4801742,194.346868 60.1573173,192.089724 C60.8579158,189.754396 61.2128906,185.967998 61.2128906,180.749023 L61.2128906,76.5693359 C61.2128906,71.3523474 60.8412052,67.5679143 60.1079641,65.2348742 C59.3977091,62.974972 58.1101144,61.4489338 56.2304997,60.620629 C54.2825453,59.7622084 51.1061566,59.2244072 46.7191351,59.0219292 L46.2421875,58.9999163 L46.2421875,53.7920613 L46.7677949,53.8190155 C54.7554208,54.2286374 67.2235995,54.4335938 84.1689453,54.4335938 C99.33719,54.4335938 111.019009,54.2286496 119.212336,53.8189832 L119.737305,53.7927348 L119.737305,59.0002499 L119.260009,59.0219452 C114.804799,59.2244547 111.593995,59.7623906 109.646453,60.620629 C107.768857,61.4480445 106.499318,62.9714911 105.822175,65.2286349 C105.121576,67.563963 104.766602,71.3503615 104.766602,76.5693359 L104.766602,123.399806 C110.154346,122.907113 115.357429,120.869779 120.382232,117.280633 C125.610937,113.545844 132.115019,107.348237 139.883314,98.6941037 L146.959909,90.6944813 C153.106441,83.804962 156.164062,77.6225187 156.164062,72.1601562 C156.164062,68.2135638 154.629583,65.0793071 151.540688,62.7133453 C148.41493,60.3191477 144.378339,59.0180978 139.417246,58.8169724 L138.9375,58.7975233 L138.9375,53.8005078 L139.455033,53.8186669 C151.138669,54.228619 162.958878,54.4335938 174.916016,54.4335938 C183.313116,54.4335938 190.342498,54.2288545 196.003012,53.8196607 L196.539062,53.7809101 L196.539062,58.7004119 L196.169244,58.8001383 C184.102428,62.054111 172.73388,69.6897028 162.063539,81.7193194 L141.694972,104.823963 L190.211279,185.718542 C192.107486,188.83374 193.96593,191.334192 195.78375,193.219338 C197.59096,195.093482 199.941625,196.806109 202.837389,198.355006 L203.101562,198.496308 L203.101562,203.517642 L202.584232,203.4997 C190.763965,203.089748 178.157542,202.884766 164.764648,202.884766 C154.449266,202.884766 144.441749,203.089698 134.741811,203.499554 L134.220703,203.521573 L134.220703,198.318443 L134.697651,198.29643 C139.09994,198.093248 142.191749,197.70466 143.950314,197.140592 C145.57504,196.619453 146.320312,195.846057 146.320312,194.796875 C146.320312,193.816656 145.626783,192.066319 144.236666,189.6169 L113.784144,138.144943 C111.75497,134.762986 110.102372,132.469585 108.844604,131.278015 C107.748667,130.239759 106.3924,129.535874 104.766602,129.166025 Z M271.866766,60.620629 C269.989169,61.4480445 268.71963,62.9714911 268.042487,65.2286349 C267.341889,67.563963 266.986914,71.3503615 266.986914,76.5693359 L266.986914,180.749023 C266.986914,185.966012 267.358599,189.750445 268.091841,192.083485 C268.802096,194.343387 270.08969,195.869426 271.969305,196.69773 C273.917259,197.556151 277.093648,198.093952 281.48067,198.29643 L281.957617,198.318443 L281.957617,203.525625 L281.432648,203.499376 C273.239321,203.08971 261.557502,202.884766 246.389258,202.884766 C229.443912,202.884766 216.975733,203.089722 208.988107,203.499344 L208.4625,203.526298 L208.4625,198.318109 L208.939796,198.296414 C213.395006,198.093905 216.60581,197.555969 218.553351,196.69773 C220.430948,195.870315 221.700487,194.346868 222.37763,192.089724 C223.078228,189.754396 223.433203,185.967998 223.433203,180.749023 L223.433203,76.5693359 C223.433203,71.3523474 223.061518,67.5679143 222.328277,65.2348742 C221.618022,62.974972 220.330427,61.4489338 218.450812,60.620629 C216.502858,59.7622084 213.326469,59.2244072 208.939448,59.0219292 L208.4625,58.9999163 L208.4625,53.7920613 L208.988107,53.8190155 C216.975733,54.2286374 229.443912,54.4335938 246.389258,54.4335938 C261.557502,54.4335938 273.239321,54.2286496 281.432648,53.8189832 L281.957617,53.7927348 L281.957617,59.0002499 L281.480321,59.0219452 C277.025112,59.2244547 273.814307,59.7623906 271.866766,60.620629 Z M315.747266,102.67067 L315.747266,161.881836 C315.747266,172.176334 316.156046,179.56844 316.969669,184.04337 C317.768753,188.438331 319.552148,191.658349 322.314844,193.730371 C325.104908,195.82292 329.851223,197.354532 336.542862,198.300824 L336.972852,198.361631 L336.972852,203.537922 L336.436364,203.498667 C330.845132,203.089552 322.994975,202.884766 312.888867,202.884766 C305.520731,202.884766 299.725076,203.089318 295.505389,203.497675 L294.957227,203.550723 L294.957227,198.39345 L295.350378,198.307448 C299.640858,197.368906 302.787552,195.903779 304.796548,193.927717 C306.798013,191.959063 308.156921,188.926378 308.858401,184.817707 C309.570473,180.647003 309.92793,174.400017 309.92793,166.085938 L309.92793,76.5693359 C309.92793,71.3523474 309.556244,67.5679143 308.823003,65.2348742 C308.112748,62.974972 306.825153,61.4489338 304.945539,60.620629 C302.997584,59.7622084 299.821196,59.2244072 295.434174,59.0219292 L294.957227,58.9999163 L294.957227,53.7676364 L295.505389,53.8206844 C299.725076,54.2290412 305.520731,54.4335938 312.888867,54.4335938 C320.601352,54.4335938 327.048632,54.2289182 332.229399,53.8199103 L332.467738,53.801094 L417.593945,143.809091 L417.593945,95.4365234 C417.593945,85.1420253 417.185165,77.7499198 416.371542,73.2749896 C415.57226,68.8789408 413.804937,65.658118 411.075338,63.5862542 C408.320225,61.4950235 403.591639,59.963702 396.900888,59.0175352 L396.470898,58.9567286 L396.470898,53.7809101 L397.006949,53.8196607 C402.66681,54.2288073 410.482827,54.4335938 420.452344,54.4335938 C427.88861,54.4335938 433.684145,54.2290454 437.83504,53.8207607 L438.383984,53.7667662 L438.383984,58.924909 L437.990833,59.0109109 C433.701522,59.9491976 430.572975,61.4136242 428.598866,63.3877331 C426.629974,65.3566254 425.287064,68.3906069 424.585349,72.5006521 C423.873277,76.6713559 423.51582,82.9183424 423.51582,91.2324219 L423.51582,203.552494 L422.966068,203.497519 C420.932732,203.294185 418.65915,203.192383 416.145703,203.192383 C413.697357,203.192383 411.077663,203.294449 408.286683,203.498667 L408.044979,203.516353 L315.747266,102.67067 Z M572.856142,195.000517 C571.801757,192.636138 570.408217,191.50293 568.647266,191.50293 C565.805919,191.50293 561.112226,193.090006 554.612635,196.272094 C540.604918,203.069956 528.709241,206.473633 518.91582,206.473633 C501.478376,206.473633 486.84117,203.467165 475.007469,197.447113 C463.1572,191.418633 454.262586,182.679158 448.335143,171.237815 C442.416973,159.81437 439.460742,146.030084 439.460742,129.889648 C439.460742,114.35472 442.934739,100.596316 449.884758,88.6230156 C456.836117,76.6474065 466.52621,67.3531789 478.947147,60.7470296 C491.360802,54.1447533 505.506229,50.8447266 521.376758,50.8447266 C530.45653,50.8447266 538.222443,52.0500789 544.674604,54.4653263 C551.115661,56.8764172 557.057623,60.2521409 562.531679,64.6199222 C563.811867,65.8361003 565.094873,66.4306641 566.391406,66.4306641 C567.591516,66.4306641 568.560798,65.5641848 569.312048,63.7173627 C570.109985,61.7557662 570.717103,58.602128 571.123081,54.271689 L571.165581,53.8183594 L576.968581,53.8183594 L576.939475,54.3459037 C576.393246,64.2463027 576.119922,81.7390594 576.119922,106.818359 L576.119922,107.318359 L570.345136,107.318359 L570.302755,106.864886 C569.621446,99.5748765 568.634301,93.41373 567.342662,88.3831342 C566.05716,83.3764455 564.130799,78.9153978 561.563996,74.9976459 C559.002885,71.0885819 555.528182,67.6138791 551.136608,64.5735578 C548.312787,62.6237771 544.979382,61.108593 541.134208,60.0292458 C537.280896,58.9476143 533.498181,58.4072266 529.784961,58.4072266 C519.877279,58.4072266 511.880161,61.8849648 505.756165,68.8501699 C499.591438,75.8616996 495.218548,84.709174 492.639178,95.3999848 C490.050918,106.127642 488.756641,117.35039 488.756641,129.069336 C488.756641,153.40342 491.73579,171.550693 497.67653,183.500068 C503.579082,195.372629 511.67057,201.269531 521.991992,201.269531 C526.274679,201.269531 529.630923,200.438778 532.062347,198.795991 C534.853492,196.84868 536.257617,193.517966 536.257617,188.74707 L536.257617,167.726562 C536.257617,160.735258 535.71575,155.638319 534.643152,152.454043 C533.59367,149.338395 531.709501,147.210584 528.972767,146.037698 C526.16888,144.836032 521.675708,144.0928 515.510074,143.821783 L515.032031,143.80077 L515.032031,138.590297 L515.559123,138.618899 C524.366583,139.096823 537.722849,139.335938 555.624805,139.335938 C570.516217,139.335938 581.306992,139.096901 587.991525,138.619435 L588.527148,138.581176 L588.527148,143.772396 L588.079491,143.819518 C585.564229,144.084283 583.781966,144.623867 582.740698,145.412706 C581.729657,146.178647 580.995696,147.694436 580.571965,149.976062 C580.134532,152.331474 579.913867,156.133695 579.913867,161.369141 L579.913867,203.5 L574.732481,203.5 L574.710306,203.023231 C574.576439,200.145104 573.958277,197.471972 572.856142,195.000517 Z" id="Combined-Shape" stroke="#979797" fill="#FFFFFF"></path>
        <path d="M788.971191,131.581543 C797.892134,135.238788 804.38621,139.750461 808.453613,145.116699 C812.521016,150.482937 814.554688,156.207977 814.554688,162.291992 C814.554688,175.963936 809.068903,186.16647 798.097168,192.899902 C787.125433,199.633334 771.590921,203 751.493164,203 C748.553696,203 743.358436,202.897462 735.907227,202.692383 C728.456017,202.487304 720.936561,202.384766 713.348633,202.384766 C696.942301,202.384766 684.740274,202.589842 676.742188,203 L676.742188,198.795898 C681.253929,198.590819 684.518056,198.04395 686.534668,197.155273 C688.55128,196.266597 689.918453,194.625989 690.63623,192.233398 C691.354007,189.840808 691.712891,186.012722 691.712891,180.749023 L691.712891,76.5693359 C691.712891,71.3056377 691.336918,67.477551 690.584961,65.0849609 C689.833004,62.6923708 688.448741,61.0517623 686.432129,60.1630859 C684.415517,59.2744096 681.185569,58.7275401 676.742188,58.5224609 L676.742188,54.3183594 C684.740274,54.7285177 696.805583,54.9335938 712.938477,54.9335938 C718.680693,54.9335938 725.07223,54.8652351 732.113281,54.7285156 C739.154332,54.5917962 744.007799,54.5234375 746.673828,54.5234375 C759.115297,54.5234375 769.591266,55.907701 778.102051,58.6762695 C786.612836,61.4448381 792.987283,65.3071041 797.225586,70.2631836 C801.463888,75.2192631 803.583008,80.9784828 803.583008,87.5410156 C803.583008,92.7363541 801.788592,97.9316146 798.199707,103.126953 C794.610822,108.322292 789.159216,112.885234 781.844727,116.815918 C774.530237,120.746602 765.609428,123.361322 755.082031,124.660156 L755.082031,125.070312 C768.753975,125.75391 780.050248,127.924298 788.971191,131.581543 Z M755.851074,114.765137 C758.824722,108.578582 760.311523,100.255912 760.311523,89.796875 C760.311523,79.2011189 759.183605,71.3398694 756.927734,66.2128906 C754.671864,61.0859119 750.912136,58.5224609 745.648438,58.5224609 C742.435531,58.5224609 740.025887,59.0180615 738.419434,60.0092773 C736.81298,61.0004932 735.719241,62.7607295 735.138184,65.2900391 C734.557126,67.8193486 734.266602,71.5790766 734.266602,76.5693359 L734.266602,124.044922 L740.008789,124.044922 C747.596718,124.044922 752.877427,120.951691 755.851074,114.765137 Z M735.343262,191.925781 C736.061039,194.318371 737.359854,195.95898 739.239746,196.847656 C741.119638,197.736333 744.041972,198.180664 748.006836,198.180664 C762.977614,198.180664 770.462891,185.910279 770.462891,161.369141 C770.462891,150.363226 767.813991,141.989287 762.516113,136.24707 C757.218235,130.504854 748.793027,127.633789 737.240234,127.633789 L734.266602,127.633789 L734.266602,180.749023 C734.266602,185.807642 734.625485,189.533191 735.343262,191.925781 Z M918.044531,104.61377 C927.409812,113.671432 932.092383,128.351461 932.092383,148.654297 C932.092383,168.888773 927.409812,183.500443 918.044531,192.489746 C908.67925,201.479049 895.383485,205.973633 878.156836,205.973633 C860.861828,205.973633 847.531883,201.479049 838.166602,192.489746 C828.80132,183.500443 824.11875,168.888773 824.11875,148.654297 C824.11875,128.351461 828.81841,113.671432 838.217871,104.61377 C847.617332,95.5561071 860.930187,91.0273438 878.156836,91.0273438 C895.383485,91.0273438 908.67925,95.5561071 918.044531,104.61377 Z M867.441504,108.458984 C864.741295,117.277388 863.391211,130.675691 863.391211,148.654297 C863.391211,166.564543 864.741295,179.894487 867.441504,188.644531 C870.141713,197.394575 873.713454,201.769531 878.156836,201.769531 C882.600218,201.769531 886.154869,197.394575 888.820898,188.644531 C891.486927,179.894487 892.819922,166.564543 892.819922,148.654297 C892.819922,130.675691 891.486927,117.277388 888.820898,108.458984 C886.154869,99.6405809 882.600218,95.2314453 878.156836,95.2314453 C873.713454,95.2314453 870.141713,99.6405809 867.441504,108.458984 Z M955.755566,182.389648 C958.182336,188.131865 961.326836,192.609359 965.18916,195.822266 C969.051484,199.035172 973.477709,200.641602 978.467969,200.641602 C982.022674,200.641602 984.945008,199.66749 987.235059,197.719238 C989.525109,195.770986 990.670117,192.917011 990.670117,189.157227 C990.670117,185.260723 989.866903,181.75734 988.260449,178.646973 C986.653996,175.536606 984.688683,172.768079 982.364453,170.341309 C980.040223,167.914539 976.314674,164.376976 971.187695,159.728516 C965.2404,154.259738 960.745816,149.918961 957.703809,146.706055 C954.661801,143.493148 952.047081,139.75051 949.85957,135.478027 C947.672059,131.205545 946.57832,126.471706 946.57832,121.276367 C946.57832,115.260712 948.389826,109.962914 952.012891,105.382812 C955.635956,100.802711 960.455243,97.2651492 966.470898,94.7700195 C972.486553,92.2748899 979.014808,91.0273438 986.055859,91.0273438 C991.592996,91.0273438 996.736988,91.6254823 1001.48799,92.8217773 C1006.23899,94.0180724 1009.91327,95.3339772 1012.51094,96.7695312 C1013.94649,97.5898479 1015.21113,98 1016.30488,98 C1019.10763,98 1020.85078,95.7441632 1021.53437,91.2324219 L1025.73848,91.2324219 C1025.1916,98.5469116 1024.91816,111.15909 1024.91816,129.069336 L1020.71406,129.069336 C1019.62031,119.909134 1017.00559,112.133333 1012.86982,105.741699 C1008.73406,99.3500657 1002.73559,96.1542969 994.874219,96.1542969 C991.319513,96.1542969 988.363,97.2138566 986.00459,99.3330078 C983.64618,101.452159 982.466992,104.289045 982.466992,107.84375 C982.466992,112.56057 984.039242,116.713361 987.183789,120.302246 C990.328336,123.891131 994.036795,127.343245 998.309277,130.658691 C1002.58176,133.974138 1005.70917,136.45214 1007.6916,138.092773 C1012.88694,142.399436 1017.02264,146.124984 1020.09883,149.269531 C1023.17502,152.414078 1025.65302,155.98582 1027.53291,159.984863 C1029.4128,163.983907 1030.35273,168.51267 1030.35273,173.571289 C1030.35273,179.792023 1028.45578,185.380346 1024.66182,190.336426 C1020.86785,195.292505 1015.74095,199.137682 1009.28096,201.87207 C1002.82096,204.606459 995.72875,205.973633 988.004102,205.973633 C979.254058,205.973633 972.042216,204.196307 966.368359,200.641602 C961.856618,198.317371 958.336145,197.155273 955.806836,197.155273 C953.140807,197.155273 951.192584,199.582007 949.962109,204.435547 L945.758008,204.435547 C946.304885,196.43746 946.57832,182.458108 946.57832,162.49707 L950.782422,162.49707 C951.671098,170.016639 953.328796,176.647432 955.755566,182.389648 Z M1109.2332,94.2060547 L1109.2332,98.4101562 L1088.62285,98.4101562 L1088.62285,185.363281 C1088.62285,188.09767 1089.10136,190.045893 1090.0584,191.208008 C1091.01543,192.370123 1092.65604,192.951172 1094.98027,192.951172 C1096.68927,192.951172 1098.56913,192.455571 1100.61992,191.464355 C1102.67071,190.47314 1104.55058,188.917979 1106.25957,186.798828 L1109.43828,189.362305 C1103.01247,200.436579 1093.06628,205.973633 1079.59941,205.973633 C1069.96069,205.973633 1062.74885,203.581079 1057.96367,198.795898 C1055.09256,195.92479 1053.17852,192.30178 1052.22148,187.926758 C1051.26445,183.551736 1050.78594,177.433633 1050.78594,169.572266 L1050.78594,98.4101562 L1034.89238,98.4101562 L1034.89238,94.2060547 L1050.78594,94.2060547 L1050.78594,69.1865234 C1058.37387,69.1865234 1065.20974,68.4516675 1071.29375,66.9819336 C1077.37776,65.5121997 1083.15407,63.1709145 1088.62285,59.9580078 L1088.62285,94.2060547 L1109.2332,94.2060547 Z M1207.18594,104.61377 C1216.55122,113.671432 1221.23379,128.351461 1221.23379,148.654297 C1221.23379,168.888773 1216.55122,183.500443 1207.18594,192.489746 C1197.82066,201.479049 1184.52489,205.973633 1167.29824,205.973633 C1150.00323,205.973633 1136.67329,201.479049 1127.30801,192.489746 C1117.94273,183.500443 1113.26016,168.888773 1113.26016,148.654297 C1113.26016,128.351461 1117.95982,113.671432 1127.35928,104.61377 C1136.75874,95.5561071 1150.07159,91.0273438 1167.29824,91.0273438 C1184.52489,91.0273438 1197.82066,95.5561071 1207.18594,104.61377 Z M1156.58291,108.458984 C1153.8827,117.277388 1152.53262,130.675691 1152.53262,148.654297 C1152.53262,166.564543 1153.8827,179.894487 1156.58291,188.644531 C1159.28312,197.394575 1162.85486,201.769531 1167.29824,201.769531 C1171.74162,201.769531 1175.29628,197.394575 1177.9623,188.644531 C1180.62833,179.894487 1181.96133,166.564543 1181.96133,148.654297 C1181.96133,130.675691 1180.62833,117.277388 1177.9623,108.458984 C1175.29628,99.6405809 1171.74162,95.2314453 1167.29824,95.2314453 C1162.85486,95.2314453 1159.28312,99.6405809 1156.58291,108.458984 Z M1314.05957,91.0273438 C1325.2022,91.0273438 1333.09763,93.8300501 1337.74609,99.4355469 C1339.86524,101.964856 1341.42041,105.365701 1342.41162,109.638184 C1343.40284,113.910666 1343.89844,119.567348 1343.89844,126.608398 L1343.89844,183.517578 C1343.89844,187.414082 1344.27441,190.456044 1345.02637,192.643555 C1345.77832,194.831066 1346.99169,196.369136 1348.6665,197.257812 C1350.34132,198.146489 1352.64842,198.59082 1355.58789,198.59082 L1355.58789,203 C1340.54875,202.453122 1330.77346,202.179688 1326.26172,202.179688 C1321.40818,202.179688 1311.46199,202.453122 1296.42285,203 L1296.42285,198.59082 C1298.8838,198.59082 1300.79784,198.146489 1302.16504,197.257812 C1303.53223,196.369136 1304.52343,194.848155 1305.13867,192.694824 C1305.75391,190.541493 1306.06152,187.482442 1306.06152,183.517578 L1306.06152,115.226562 C1306.06152,110.714821 1305.24122,107.382335 1303.60059,105.229004 C1301.95995,103.075673 1299.36232,101.999023 1295.80762,101.999023 C1293.20995,101.999023 1290.74903,102.648431 1288.4248,103.947266 C1286.10057,105.2461 1284.22071,107.040516 1282.78516,109.330566 C1281.3496,111.620617 1280.63184,114.201158 1280.63184,117.072266 L1280.63184,183.517578 C1280.63184,187.414082 1280.93945,190.456044 1281.55469,192.643555 C1282.16992,194.831066 1283.17822,196.369136 1284.57959,197.257812 C1285.98096,198.146489 1287.9121,198.59082 1290.37305,198.59082 L1290.37305,203 C1276.15423,202.453122 1266.89162,202.179688 1262.58496,202.179688 C1257.73142,202.179688 1247.23836,202.453122 1231.10547,203 L1231.10547,198.59082 C1234.04494,198.59082 1236.36913,198.146489 1238.07812,197.257812 C1239.78712,196.369136 1241.01757,194.831066 1241.76953,192.643555 C1242.52149,190.456044 1242.89746,187.414082 1242.89746,183.517578 L1242.89746,116.867188 C1242.89746,110.373014 1242.0088,105.673354 1240.23145,102.768066 C1238.45409,99.8627784 1235.41213,98.4101562 1231.10547,98.4101562 L1231.10547,94.0009766 C1235.54885,94.4111349 1239.88963,94.6162109 1244.12793,94.6162109 C1258.68855,94.6162109 1270.8564,93.6591893 1280.63184,91.7451172 L1280.63184,106.818359 C1286.98929,96.290963 1298.13176,91.0273438 1314.05957,91.0273438 Z" id="Boston" fill="#FFFFFF"></path>
    </g>
</svg>