<?xml version="1.0" encoding="UTF-8"?>
<svg width="1300px" height="260px" viewBox="0 0 1300 260" version="1.1" xmlns="http://www.w3.org/2000/svg" xmlns:xlink="http://www.w3.org/1999/xlink">
    <!-- Generator: Sketch 48.2 (47327) - http://www.bohemiancoding.com/sketch -->
    <title>Artboard Copy</title>
    <desc>Created with Sketch.</desc>
    <defs>
        <path d="M0,0 L575,0 L575,260 L0,260 L0,0 Z M228.776367,61.8447266 C230.758799,60.9560502 234.005837,60.4091807 238.517578,60.2041016 L238.517578,56 C229.904254,56.4101583 217.497151,56.6152344 201.295898,56.6152344 L183.043945,56.6152344 L148.59082,145.208984 L108.908203,56 C96.8085333,56.4101583 82.3164907,56.6152344 65.4316406,56.6152344 C58.0487912,56.6152344 52.2383024,56.4101583 48,56 L48,60.2041016 C52.4433816,60.4091807 55.6733298,60.9560502 57.6899414,61.8447266 C59.7065531,62.7334029 61.0908166,64.3740115 61.8427734,66.7666016 C62.5947303,69.1591917 62.9707031,72.9872784 62.9707031,78.2509766 L62.9707031,167.767578 C62.9707031,176.107464 62.61182,182.379374 61.894043,186.583496 C61.1762659,190.787619 59.7749128,193.915029 57.6899414,195.96582 C55.60497,198.016612 52.3750219,199.520503 48,200.477539 L48,204.681641 C52.2383024,204.271482 58.0487912,204.066406 65.4316406,204.066406 C75.5488787,204.066406 83.4101282,204.271482 89.015625,204.681641 L89.015625,200.477539 C82.248013,199.520503 77.4287253,197.965343 74.5576172,195.812012 C71.6865091,193.658681 69.8408244,190.326194 69.0205078,185.814453 C68.2001912,181.302712 67.7900391,173.885794 67.7900391,163.563477 L67.7900391,69.6376953 L126.955078,204.476562 L130.338867,204.476562 L180.993164,74.8671875 L180.993164,182.430664 C180.993164,187.694362 180.565922,191.522449 179.711426,193.915039 C178.856929,196.307629 177.284679,197.948238 174.994629,198.836914 C172.704578,199.72559 169.030299,200.27246 163.97168,200.477539 L163.97168,204.681641 C171.969767,204.271482 184.411048,204.066406 201.295898,204.066406 C217.497151,204.066406 229.904254,204.271482 238.517578,204.681641 L238.517578,200.477539 C234.074197,200.27246 230.844248,199.72559 228.827637,198.836914 C226.811025,197.948238 225.443851,196.307629 224.726074,193.915039 C224.008297,191.522449 223.649414,187.694362 223.649414,182.430664 L223.649414,78.2509766 C223.649414,72.9189187 224.008297,69.0737423 224.726074,66.715332 C225.443851,64.3569218 226.793935,62.7334029 228.776367,61.8447266 Z M312.429981,61.8447266 C314.720031,60.9560502 318.394311,60.4091807 323.45293,60.2041016 L323.45293,56 C314.839605,56.4101583 302.466682,56.6152344 286.333789,56.6152344 C269.380579,56.6152344 256.905118,56.4101583 248.907031,56 L248.907031,60.2041016 C253.350413,60.4091807 256.580361,60.9560502 258.596973,61.8447266 C260.613584,62.7334029 261.997848,64.3740115 262.749805,66.7666016 C263.501762,69.1591917 263.877734,72.9872784 263.877734,78.2509766 L263.877734,182.430664 C263.877734,187.694362 263.518851,191.522449 262.801074,193.915039 C262.083297,196.307629 260.716123,197.948238 258.699512,198.836914 C256.6829,199.72559 253.418773,200.27246 248.907031,200.477539 L248.907031,204.681641 C265.176644,204.271482 289.683235,204.066406 322.427539,204.066406 C344.986246,204.066406 361.016359,204.271482 370.518359,204.681641 C369.561323,194.906201 369.082813,182.43074 369.082813,167.254883 C369.082813,159.393515 369.287889,152.967798 369.698047,147.977539 L364.878711,147.977539 C363.306437,156.659223 360.230296,165.016073 355.650195,173.04834 C351.070094,181.080607 345.891923,187.557593 340.115527,192.479492 C334.339131,197.401392 329.024243,199.862305 324.170703,199.862305 L317.198047,199.862305 C313.98514,199.862305 311.660945,199.554691 310.225391,198.939453 C308.789837,198.324216 307.798636,197.110849 307.251758,195.299316 C306.70488,193.487784 306.431445,190.599629 306.431445,186.634766 L306.431445,78.2509766 C306.431445,72.9872784 306.858687,69.1591917 307.713184,66.7666016 C308.56768,64.3740115 310.13993,62.7334029 312.429981,61.8447266 Z M527.74375,195.248047 C525.898038,193.333975 524.018174,190.804703 522.104102,187.660156 L473.398047,106.449219 L494.008399,83.0703125 C504.740874,70.9706426 516.190955,63.2802898 528.358984,59.9990234 L528.358984,56 C522.685128,56.4101583 515.644183,56.6152344 507.235938,56.6152344 C495.272987,56.6152344 483.446934,56.4101583 471.757422,56 L471.757422,59.9990234 C476.816041,60.2041026 480.951742,61.5370971 484.164649,63.9980469 C487.377555,66.4589967 488.983984,69.7402139 488.983984,73.8417969 C488.983984,79.4472937 485.873664,85.7362933 479.65293,92.7089844 L472.577734,100.707031 C464.784727,109.388715 458.256472,115.609356 452.992774,119.369141 C447.729075,123.128925 442.26038,125.213865 436.586524,125.624023 L436.586524,78.2509766 C436.586524,72.9872784 436.945407,69.1591917 437.663184,66.7666016 C438.380961,64.3740115 439.748135,62.7334029 441.764746,61.8447266 C443.781358,60.9560502 447.045485,60.4091807 451.557227,60.2041016 L451.557227,56 C443.354061,56.4101583 431.664724,56.6152344 416.488867,56.6152344 C399.535658,56.6152344 387.060196,56.4101583 379.062109,56 L379.062109,60.2041016 C383.505491,60.4091807 386.735439,60.9560502 388.752051,61.8447266 C390.768663,62.7334029 392.152926,64.3740115 392.904883,66.7666016 C393.65684,69.1591917 394.032813,72.9872784 394.032813,78.2509766 L394.032813,182.430664 C394.032813,187.694362 393.673929,191.522449 392.956152,193.915039 C392.238375,196.307629 390.871202,197.948238 388.85459,198.836914 C386.837978,199.72559 383.573851,200.27246 379.062109,200.477539 L379.062109,204.681641 C387.060196,204.271482 399.535658,204.066406 416.488867,204.066406 C431.664724,204.066406 443.354061,204.271482 451.557227,204.681641 L451.557227,200.477539 C447.113845,200.27246 443.883897,199.72559 441.867285,198.836914 C439.850674,197.948238 438.46641,196.307629 437.714453,193.915039 C436.962496,191.522449 436.586524,187.694362 436.586524,182.430664 L436.586524,130.238281 C438.568955,130.58008 440.209564,131.366205 441.508399,132.59668 C442.807233,133.827155 444.482021,136.15135 446.532813,139.569336 L476.986914,191.043945 C478.422468,193.573255 479.140234,195.38476 479.140234,196.478516 C479.140234,197.77735 478.234482,198.717282 476.422949,199.29834 C474.611417,199.879397 471.484007,200.27246 467.040625,200.477539 L467.040625,204.681641 C476.747705,204.271482 486.762253,204.066406 497.08457,204.066406 C510.483075,204.066406 523.095253,204.271482 534.921484,204.681641 L534.921484,200.477539 C531.982017,198.905266 529.589462,197.162119 527.74375,195.248047 Z" id="path-1"></path>
    </defs>
    <g id="Page-1" stroke="none" stroke-width="1" fill="none" fill-rule="evenodd">
        <g id="Artboard-Copy">
            <path d="M734.229004,131.263184 C743.149947,134.920428 749.644023,139.432102 753.711426,144.79834 C757.778829,150.164578 759.8125,155.889618 759.8125,161.973633 C759.8125,175.645576 754.326715,185.848111 743.35498,192.581543 C732.383246,199.314975 716.848733,202.681641 696.750977,202.681641 C693.811509,202.681641 688.616248,202.579103 681.165039,202.374023 C673.71383,202.168944 666.194374,202.066406 658.606445,202.066406 C642.200113,202.066406 629.998087,202.271482 622,202.681641 L622,198.477539 C626.511741,198.27246 629.775869,197.72559 631.79248,196.836914 C633.809092,195.948238 635.176266,194.307629 635.894043,191.915039 C636.61182,189.522449 636.970703,185.694362 636.970703,180.430664 L636.970703,76.2509766 C636.970703,70.9872784 636.59473,67.1591917 635.842773,64.7666016 C635.090817,62.3740115 633.706553,60.7334029 631.689941,59.8447266 C629.67333,58.9560502 626.443382,58.4091807 622,58.2041016 L622,54 C629.998087,54.4101583 642.063396,54.6152344 658.196289,54.6152344 C663.938505,54.6152344 670.330043,54.5468757 677.371094,54.4101562 C684.412145,54.2734368 689.265612,54.2050781 691.931641,54.2050781 C704.373109,54.2050781 714.849079,55.5893416 723.359863,58.3579102 C731.870648,61.1264787 738.245096,64.9887448 742.483398,69.9448242 C746.721701,74.9009037 748.84082,80.6601234 748.84082,87.2226562 C748.84082,92.4179947 747.046405,97.6132553 743.45752,102.808594 C739.868634,108.003932 734.417029,112.566875 727.102539,116.497559 C719.788049,120.428242 710.86724,123.042962 700.339844,124.341797 L700.339844,124.751953 C714.011787,125.43555 725.308061,127.605939 734.229004,131.263184 Z M701.108887,114.446777 C704.082534,108.260223 705.569336,99.9375523 705.569336,89.4785156 C705.569336,78.8827595 704.441418,71.02151 702.185547,65.8945312 C699.929676,60.7675525 696.169948,58.2041016 690.90625,58.2041016 C687.693343,58.2041016 685.283699,58.6997021 683.677246,59.690918 C682.070793,60.6821339 680.977054,62.4423702 680.395996,64.9716797 C679.814939,67.5009892 679.524414,71.2607172 679.524414,76.2509766 L679.524414,123.726562 L685.266602,123.726562 C692.85453,123.726562 698.135239,120.633332 701.108887,114.446777 Z M680.601074,191.607422 C681.318851,194.000012 682.617666,195.640621 684.497559,196.529297 C686.377451,197.417973 689.299785,197.862305 693.264648,197.862305 C708.235426,197.862305 715.720703,185.59192 715.720703,161.050781 C715.720703,150.044867 713.071804,141.670927 707.773926,135.928711 C702.476048,130.186495 694.050839,127.31543 682.498047,127.31543 L679.524414,127.31543 L679.524414,180.430664 C679.524414,185.489283 679.883297,189.214832 680.601074,191.607422 Z M863.102344,104.29541 C872.467625,113.353073 877.150195,128.033102 877.150195,148.335938 C877.150195,168.570414 872.467625,183.182084 863.102344,192.171387 C853.737063,201.160689 840.441297,205.655273 823.214648,205.655273 C805.91964,205.655273 792.589695,201.160689 783.224414,192.171387 C773.859133,183.182084 769.176563,168.570414 769.176563,148.335938 C769.176563,128.033102 773.876223,113.353073 783.275684,104.29541 C792.675145,95.2377477 805.988,90.7089844 823.214648,90.7089844 C840.441297,90.7089844 853.737063,95.2377477 863.102344,104.29541 Z M812.499316,108.140625 C809.799108,116.959028 808.449023,130.357332 808.449023,148.335938 C808.449023,166.246183 809.799108,179.576128 812.499316,188.326172 C815.199525,197.076216 818.771267,201.451172 823.214648,201.451172 C827.65803,201.451172 831.212682,197.076216 833.878711,188.326172 C836.54474,179.576128 837.877734,166.246183 837.877734,148.335938 C837.877734,130.357332 836.54474,116.959028 833.878711,108.140625 C831.212682,99.3222215 827.65803,94.9130859 823.214648,94.9130859 C818.771267,94.9130859 815.199525,99.3222215 812.499316,108.140625 Z M900.613379,182.071289 C903.040149,187.813505 906.184649,192.291 910.046973,195.503906 C913.909297,198.716813 918.335522,200.323242 923.325781,200.323242 C926.880487,200.323242 929.802821,199.349131 932.092871,197.400879 C934.382922,195.452627 935.52793,192.598652 935.52793,188.838867 C935.52793,184.942363 934.724715,181.43898 933.118262,178.328613 C931.511808,175.218246 929.546496,172.449719 927.222266,170.022949 C924.898035,167.596179 921.172487,164.058617 916.045508,159.410156 C910.098213,153.941379 905.603629,149.600602 902.561621,146.387695 C899.519614,143.174789 896.904894,139.43215 894.717383,135.159668 C892.529872,130.887186 891.436133,126.153346 891.436133,120.958008 C891.436133,114.942353 893.247638,109.644554 896.870703,105.064453 C900.493768,100.484352 905.313056,96.9467898 911.328711,94.4516602 C917.344366,91.9565305 923.872621,90.7089844 930.913672,90.7089844 C936.450809,90.7089844 941.594801,91.3071229 946.345801,92.503418 C951.096801,93.699713 954.771081,95.0156178 957.36875,96.4511719 C958.804304,97.2714885 960.06894,97.6816406 961.162695,97.6816406 C963.965444,97.6816406 965.70859,95.4258038 966.392188,90.9140625 L970.596289,90.9140625 C970.049411,98.2285522 969.775977,110.840731 969.775977,128.750977 L965.571875,128.750977 C964.47812,119.590775 961.8634,111.814973 957.727637,105.42334 C953.591874,99.0317063 947.593399,95.8359375 939.732031,95.8359375 C936.177326,95.8359375 933.220813,96.8954972 930.862402,99.0146484 C928.503992,101.1338 927.324805,103.970685 927.324805,107.525391 C927.324805,112.242211 928.897055,116.395002 932.041602,119.983887 C935.186149,123.572772 938.894608,127.024886 943.16709,130.340332 C947.439572,133.655778 950.566982,136.133781 952.549414,137.774414 C957.744753,142.081076 961.880453,145.806625 964.956641,148.951172 C968.032828,152.095719 970.510831,155.66746 972.390723,159.666504 C974.270615,163.665547 975.210547,168.194311 975.210547,173.25293 C975.210547,179.473664 973.313593,185.061987 969.519629,190.018066 C965.725665,194.974146 960.598763,198.819322 954.13877,201.553711 C947.678776,204.2881 940.586562,205.655273 932.861914,205.655273 C924.11187,205.655273 916.900028,203.877947 911.226172,200.323242 C906.714431,197.999012 903.193958,196.836914 900.664649,196.836914 C897.99862,196.836914 896.050397,199.263648 894.819922,204.117188 L890.61582,204.117188 C891.162698,196.119101 891.436133,182.139748 891.436133,162.178711 L895.640234,162.178711 C896.528911,169.69828 898.186609,176.329073 900.613379,182.071289 Z M1053.89102,93.8876953 L1053.89102,98.0917969 L1033.28066,98.0917969 L1033.28066,185.044922 C1033.28066,187.779311 1033.75918,189.727533 1034.71621,190.889648 C1035.67325,192.051764 1037.31386,192.632813 1039.63809,192.632813 C1041.34708,192.632813 1043.22694,192.137212 1045.27773,191.145996 C1047.32853,190.15478 1049.20839,188.59962 1050.91738,186.480469 L1054.09609,189.043945 C1047.67028,200.118219 1037.72409,205.655273 1024.25723,205.655273 C1014.61851,205.655273 1007.40666,203.262719 1002.62148,198.477539 C999.750376,195.606431 997.836333,191.98342 996.879297,187.608398 C995.922261,183.233377 995.44375,177.115274 995.44375,169.253906 L995.44375,98.0917969 L979.550195,98.0917969 L979.550195,93.8876953 L995.44375,93.8876953 L995.44375,68.8681641 C1003.03168,68.8681641 1009.86755,68.1333081 1015.95156,66.6635742 C1022.03558,65.1938403 1027.81189,62.8525551 1033.28066,59.6396484 L1033.28066,93.8876953 L1053.89102,93.8876953 Z M1151.64375,104.29541 C1161.00903,113.353073 1165.6916,128.033102 1165.6916,148.335938 C1165.6916,168.570414 1161.00903,183.182084 1151.64375,192.171387 C1142.27847,201.160689 1128.9827,205.655273 1111.75605,205.655273 C1094.46105,205.655273 1081.1311,201.160689 1071.76582,192.171387 C1062.40054,183.182084 1057.71797,168.570414 1057.71797,148.335938 C1057.71797,128.033102 1062.41763,113.353073 1071.81709,104.29541 C1081.21655,95.2377477 1094.52941,90.7089844 1111.75605,90.7089844 C1128.9827,90.7089844 1142.27847,95.2377477 1151.64375,104.29541 Z M1101.04072,108.140625 C1098.34051,116.959028 1096.99043,130.357332 1096.99043,148.335938 C1096.99043,166.246183 1098.34051,179.576128 1101.04072,188.326172 C1103.74093,197.076216 1107.31267,201.451172 1111.75605,201.451172 C1116.19944,201.451172 1119.75409,197.076216 1122.42012,188.326172 C1125.08615,179.576128 1126.41914,166.246183 1126.41914,148.335938 C1126.41914,130.357332 1125.08615,116.959028 1122.42012,108.140625 C1119.75409,99.3222215 1116.19944,94.9130859 1111.75605,94.9130859 C1107.31267,94.9130859 1103.74093,99.3222215 1101.04072,108.140625 Z M1258.31738,90.7089844 C1269.46002,90.7089844 1277.35545,93.5116907 1282.00391,99.1171875 C1284.12306,101.646497 1285.67822,105.047342 1286.66943,109.319824 C1287.66065,113.592307 1288.15625,119.248988 1288.15625,126.290039 L1288.15625,183.199219 C1288.15625,187.095723 1288.53222,190.137684 1289.28418,192.325195 C1290.03614,194.512706 1291.2495,196.050777 1292.92432,196.939453 C1294.59913,197.828129 1296.90624,198.272461 1299.8457,198.272461 L1299.8457,202.681641 C1284.80657,202.134763 1275.03127,201.861328 1270.51953,201.861328 C1265.66599,201.861328 1255.7198,202.134763 1240.68066,202.681641 L1240.68066,198.272461 C1243.14161,198.272461 1245.05566,197.828129 1246.42285,196.939453 C1247.79005,196.050777 1248.78125,194.529796 1249.39648,192.376465 C1250.01172,190.223134 1250.31934,187.164082 1250.31934,183.199219 L1250.31934,114.908203 C1250.31934,110.396462 1249.49903,107.063976 1247.8584,104.910645 C1246.21777,102.757313 1243.62014,101.680664 1240.06543,101.680664 C1237.46776,101.680664 1235.00685,102.330072 1232.68262,103.628906 C1230.35839,104.927741 1228.47852,106.722157 1227.04297,109.012207 C1225.60741,111.302258 1224.88965,113.882798 1224.88965,116.753906 L1224.88965,183.199219 C1224.88965,187.095723 1225.19726,190.137684 1225.8125,192.325195 C1226.42774,194.512706 1227.43603,196.050777 1228.8374,196.939453 C1230.23878,197.828129 1232.16991,198.272461 1234.63086,198.272461 L1234.63086,202.681641 C1220.41204,202.134763 1211.14944,201.861328 1206.84277,201.861328 C1201.98923,201.861328 1191.49617,202.134763 1175.36328,202.681641 L1175.36328,198.272461 C1178.30275,198.272461 1180.62694,197.828129 1182.33594,196.939453 C1184.04493,196.050777 1185.27539,194.512706 1186.02734,192.325195 C1186.7793,190.137684 1187.15527,187.095723 1187.15527,183.199219 L1187.15527,116.548828 C1187.15527,110.054655 1186.26661,105.354995 1184.48926,102.449707 C1182.71191,99.5444191 1179.66994,98.0917969 1175.36328,98.0917969 L1175.36328,93.6826172 C1179.80666,94.0927755 1184.14744,94.2978516 1188.38574,94.2978516 C1202.94636,94.2978516 1215.11421,93.3408299 1224.88965,91.4267578 L1224.88965,106.5 C1231.2471,95.9726036 1242.38957,90.7089844 1258.31738,90.7089844 Z" id="Boston" fill="#FFFFFF"></path>
            <g id="Combined-Shape">
                <use fill="#FFFFFF" fill-rule="evenodd" xlink:href="#path-1"></use>
                <path stroke="#979797" stroke-width="1" d="M0.5,0.5 L0.5,259.5 L574.5,259.5 L574.5,0.5 L0.5,0.5 Z M180.493164,77.520127 L130.680285,204.976562 L126.628454,204.976562 L68.2900391,72.021595 L68.2900391,163.563477 C68.2900391,173.857975 68.6988191,181.25008 69.5124428,185.72501 C70.3115266,190.119971 72.0949214,193.33999 74.8576172,195.412012 C77.6476818,197.50456 82.3939967,199.036172 89.0856355,199.982465 L89.515625,200.043271 L89.515625,205.219563 L88.9791372,205.180307 C83.3879051,204.771193 75.5377486,204.566406 65.4316406,204.566406 C58.0635044,204.566406 52.2678497,204.770959 48.0481621,205.179316 L47.5,205.232364 L47.5,200.075091 L47.8931516,199.989089 C52.1836317,199.050547 55.3303254,197.585419 57.3393219,195.609357 C59.3407864,193.640704 60.6996944,190.608019 61.4011748,186.499348 C62.1132461,182.328644 62.4707031,176.081658 62.4707031,167.767578 L62.4707031,78.2509766 C62.4707031,73.033988 62.0990177,69.2495549 61.3657766,66.9165149 C60.6555216,64.6566126 59.3679269,63.1305744 57.4883122,62.3022697 C55.5403578,61.443849 52.3639691,60.9060478 47.9769476,60.7035699 L47.5,60.6815569 L47.5,55.449277 L48.0481621,55.502325 C52.2678497,55.9106819 58.0635044,56.1152344 65.4316406,56.1152344 C82.3112166,56.1152344 96.7977694,55.910236 108.891264,55.500287 L109.228075,55.4888697 L148.559843,143.909124 L182.701912,56.1152344 L201.295898,56.1152344 C217.489899,56.1152344 229.889886,55.9102759 238.493796,55.5005659 L239.017578,55.4756239 L239.017578,60.6818906 L238.540282,60.7035858 C234.086113,60.9060481 230.892983,61.4438383 228.980895,62.3009812 C227.135407,63.1282689 225.881529,64.6360973 225.204411,66.8609128 C224.504402,69.1609439 224.149414,72.9643829 224.149414,78.2509766 L224.149414,182.430664 C224.149414,187.649639 224.504389,191.436037 225.204987,193.771365 C225.882131,196.028509 227.151669,197.551956 229.029266,198.379371 C230.97722,199.237792 234.153609,199.775593 238.540631,199.978071 L239.017578,200.000084 L239.017578,205.206017 L238.493796,205.181075 C229.889886,204.771365 217.489899,204.566406 201.295898,204.566406 C184.418909,204.566406 171.984924,204.771362 163.997287,205.180984 L163.47168,205.207939 L163.47168,199.997399 L163.951426,199.977949 C168.9596,199.774915 172.586443,199.235106 174.813742,198.370781 C176.967128,197.535139 178.434418,196.004054 179.240555,193.746871 C180.07145,191.420366 180.493164,187.641804 180.493164,182.430664 L180.493164,77.520127 Z M312.610868,62.3108593 C310.457481,63.1465019 308.990191,64.6775871 308.184055,66.9347698 C307.35316,69.261275 306.931445,73.039837 306.931445,78.2509766 L306.931445,186.634766 C306.931445,190.554665 307.200899,193.400771 307.730422,195.154814 C308.236691,196.831832 309.130818,197.926367 310.42235,198.479881 C311.781723,199.062469 314.047148,199.362305 317.198047,199.362305 L324.170703,199.362305 C328.888453,199.362305 334.097472,196.950412 339.791246,192.098912 C345.521107,187.216663 350.663167,180.784846 355.215846,172.800669 C359.768216,164.817036 362.824659,156.513698 364.386714,147.888437 L364.461129,147.477539 L370.240829,147.477539 L370.196367,148.018497 C369.787475,152.993345 369.582813,159.4061 369.582813,167.254883 C369.582813,182.415741 370.060729,194.875717 371.01598,204.632922 L371.072087,205.206008 L370.496797,205.181175 C361.003864,204.771409 344.979515,204.566406 322.427539,204.566406 C289.687087,204.566406 265.184162,204.771452 248.919632,205.181482 L248.407031,205.194405 L248.407031,199.99975 L248.884327,199.978055 C253.339537,199.775545 256.550341,199.237609 258.497883,198.379371 C260.375479,197.551956 261.645018,196.028509 262.322161,193.771365 C263.02276,191.436037 263.377734,187.649639 263.377734,182.430664 L263.377734,78.2509766 C263.377734,73.033988 263.006049,69.2495549 262.272808,66.9165149 C261.562553,64.6566126 260.274958,63.1305744 258.395344,62.3022697 C256.447389,61.443849 253.271,60.9060478 248.883979,60.7035699 L248.407031,60.6815569 L248.407031,55.4737019 L248.932639,55.5006562 C256.920265,55.910278 269.388443,56.1152344 286.333789,56.1152344 C302.459431,56.1152344 314.825227,55.9102764 323.429147,55.5005659 L323.95293,55.4756239 L323.95293,60.684242 L323.473183,60.7036912 C318.465009,60.9067253 314.838167,61.4465343 312.610868,62.3108593 Z M437.086524,130.847666 L437.086524,182.430664 C437.086524,187.647653 437.458209,191.432086 438.19145,193.765126 C438.901705,196.025028 440.1893,197.551066 442.068914,198.379371 C444.016869,199.237792 447.193258,199.775593 451.580279,199.978071 L452.057227,200.000084 L452.057227,205.207265 L451.532258,205.181017 C443.338931,204.77135 431.657112,204.566406 416.488867,204.566406 C399.543522,204.566406 387.075343,204.771363 379.087717,205.180984 L378.562109,205.207939 L378.562109,199.99975 L379.039406,199.978055 C383.494615,199.775545 386.70542,199.237609 388.652961,198.379371 C390.530557,197.551956 391.800096,196.028509 392.477239,193.771365 C393.177838,191.436037 393.532813,187.649639 393.532813,182.430664 L393.532813,78.2509766 C393.532813,73.033988 393.161127,69.2495549 392.427886,66.9165149 C391.717631,64.6566126 390.430036,63.1305744 388.550422,62.3022697 C386.602467,61.443849 383.426079,60.9060478 379.039057,60.7035699 L378.562109,60.6815569 L378.562109,55.4737019 L379.087717,55.5006562 C387.075343,55.910278 399.543522,56.1152344 416.488867,56.1152344 C431.657112,56.1152344 443.338931,55.9102902 451.532258,55.5006238 L452.057227,55.4743754 L452.057227,60.6818906 L451.57993,60.7035858 C447.124721,60.9060954 443.913916,61.4440312 441.966375,62.3022697 C440.088779,63.1296851 438.81924,64.6531317 438.142097,66.9102755 C437.441498,69.2456037 437.086524,73.0320021 437.086524,78.2509766 L437.086524,125.081446 C442.474268,124.588754 447.677351,122.551419 452.702154,118.962274 C457.930859,115.227485 464.434941,109.029878 472.203236,100.375744 L479.279831,92.3761219 C485.426363,85.4866026 488.483984,79.3041594 488.483984,73.8417969 C488.483984,69.8952044 486.949505,66.7609477 483.86061,64.3949859 C480.734852,62.0007883 476.698261,60.6997385 471.737168,60.4986131 L471.257422,60.4791639 L471.257422,55.4821484 L471.774955,55.5003075 C483.458591,55.9102597 495.2788,56.1152344 507.235938,56.1152344 C515.633038,56.1152344 522.66242,55.9104951 528.322934,55.5013013 L528.858984,55.4625507 L528.858984,60.3820525 L528.489166,60.4817789 C516.42235,63.7357516 505.053802,71.3713435 494.383461,83.4009601 L474.014894,106.505604 L522.531201,187.400183 C524.427408,190.515381 526.285852,193.015832 528.103672,194.900979 C529.910882,196.775122 532.261547,198.48775 535.157311,200.036647 L535.421484,200.177949 L535.421484,205.199282 L534.904154,205.18134 C523.083887,204.771389 510.477464,204.566406 497.08457,204.566406 C486.769188,204.566406 476.761671,204.771338 467.061733,205.181195 L466.540625,205.203214 L466.540625,200.000084 L467.017573,199.978071 C471.419862,199.774888 474.511671,199.3863 476.270236,198.822232 C477.894962,198.301093 478.640234,197.527698 478.640234,196.478516 C478.640234,195.498296 477.946705,193.74796 476.556587,191.298541 L446.104066,139.826584 C444.074892,136.444626 442.422294,134.151226 441.164526,132.959656 C440.068589,131.9214 438.712322,131.217515 437.086524,130.847666 Z"></path>
            </g>
        </g>
    </g>
</svg>