<?xml version="1.0" encoding="UTF-8"?>
<svg width="1388px" height="224px" viewBox="0 0 1388 224" version="1.1" xmlns="http://www.w3.org/2000/svg" xmlns:xlink="http://www.w3.org/1999/xlink">
    <!-- Generator: Sketch 48.2 (47327) - http://www.bohemiancoding.com/sketch -->
    <title>Artboard Copy</title>
    <desc>Created with Sketch.</desc>
    <defs></defs>
    <g id="Page-1" stroke="none" stroke-width="1" fill="none" fill-rule="evenodd">
        <g id="Artboard-Copy" fill="#FFFFFF">
            <g id="Group">
                <path d="M0,0 L575,0 L575,224 L0,224 L0,0 Z M42.0641601,35.6777344 L42.0641601,186 L80.1061523,186 L80.1061523,71.3613281 L109.432324,186 L143.78291,186 L173.211621,71.3613281 L173.211621,186 L211.151074,186 L211.151074,35.6777344 L150.242871,35.6777344 L126.761426,127.142578 L103.177441,35.6777344 L42.0641601,35.6777344 Z M239.484863,35.6777344 L239.484863,186 L358.430176,186 L358.430176,148.983398 L285.935059,148.983398 L285.935059,35.6777344 L239.484863,35.6777344 Z M378.458301,35.6777344 L378.458301,186 L424.908496,186 L424.908496,149.291016 L448.902637,124.168945 L480.587207,186 L537.804004,186 L480.587207,92.3818359 L535.343066,35.6777344 L473.614551,35.6777344 L424.908496,92.484375 L424.908496,35.6777344 L378.458301,35.6777344 Z" id="Combined-Shape"></path>
                <path d="M617,36 L703.953125,36 C718.445385,36 729.570762,39.5888313 737.32959,46.7666016 C745.088418,53.9443718 748.967773,62.8310017 748.967773,73.4267578 C748.967773,82.313521 746.199246,89.9355151 740.662109,96.2929688 C736.970685,100.531271 731.570348,103.880847 724.460938,106.341797 C735.261773,108.939466 743.208471,113.399871 748.30127,119.723145 C753.394068,126.046418 755.94043,133.993116 755.94043,143.563477 C755.94043,151.356484 754.128924,158.36325 750.505859,164.583984 C746.882794,170.804719 741.926789,175.726544 735.637695,179.349609 C731.741191,181.60548 725.862344,183.246089 718.000977,184.271484 C707.54194,185.638679 700.603533,186.322266 697.185547,186.322266 L617,186.322266 L617,36 Z M663.860352,94.9599609 L684.060547,94.9599609 C691.306677,94.9599609 696.34813,93.7124148 699.185059,91.2172852 C702.021987,88.7221555 703.44043,85.1162345 703.44043,80.3994141 C703.44043,76.0243922 702.021987,72.6064576 699.185059,70.1455078 C696.34813,67.684558 691.409215,66.4541016 684.368164,66.4541016 L663.860352,66.4541016 L663.860352,94.9599609 Z M663.860352,154.022461 L687.546875,154.022461 C695.544962,154.022461 701.184554,152.604018 704.46582,149.76709 C707.747087,146.930162 709.387695,143.119165 709.387695,138.333984 C709.387695,133.890603 707.764176,130.318861 704.51709,127.618652 C701.270003,124.918444 695.579142,123.568359 687.444336,123.568359 L663.860352,123.568359 L663.860352,154.022461 Z M771.04668,132.181641 C771.04668,115.570229 776.652092,101.881401 787.863086,91.1147461 C799.07408,80.3480907 814.21553,74.9648438 833.287891,74.9648438 C855.09464,74.9648438 871.569085,81.2880227 882.711719,93.9345703 C891.666842,104.120168 896.144336,116.663988 896.144336,131.566406 C896.144336,148.314537 890.590192,162.037544 879.481738,172.73584 C868.373284,183.434136 853.009668,188.783203 833.39043,188.783203 C815.890342,188.783203 801.740093,184.339888 790.939258,175.453125 C777.677473,164.447211 771.04668,150.023527 771.04668,132.181641 Z M812.882617,132.079102 C812.882617,141.786181 814.84793,148.963844 818.778613,153.612305 C822.709297,158.260765 827.648212,160.584961 833.595508,160.584961 C839.611163,160.584961 844.550078,158.294945 848.412402,153.714844 C852.274726,149.134743 854.205859,141.786183 854.205859,131.668945 C854.205859,122.235304 852.257637,115.211449 848.361133,110.597168 C844.464629,105.982887 839.645341,103.675781 833.903125,103.675781 C827.81911,103.675781 822.794746,106.017066 818.829883,110.699707 C814.865019,115.382348 812.882617,122.508741 812.882617,132.079102 Z M907.55918,156.175781 L948.984961,152.279297 C950.693954,157.201196 953.086508,160.721669 956.162695,162.84082 C959.238883,164.959972 963.340404,166.019531 968.467383,166.019531 C974.07288,166.019531 978.413657,164.823254 981.489844,162.430664 C983.882434,160.653311 985.078711,158.431654 985.078711,155.765625 C985.078711,152.757797 983.506461,150.433602 980.361914,148.792969 C978.106044,147.630854 972.124658,146.195321 962.417578,144.486328 C947.925318,141.957019 937.859501,139.615733 932.219824,137.462402 C926.580148,135.309071 921.829219,131.668971 917.966895,126.541992 C914.104571,121.415013 912.173438,115.570345 912.173438,109.007812 C912.173438,101.830042 914.258378,95.6435807 918.42832,90.4482422 C922.598263,85.2529037 928.340393,81.373548 935.654883,78.8100586 C942.969373,76.2465692 952.778845,74.9648438 965.083594,74.9648438 C978.07194,74.9648438 987.659247,75.9560448 993.845801,77.9384766 C1000.03236,79.9209083 1005.19344,82.9970495 1009.3292,87.1669922 C1013.46496,91.3369349 1016.89999,96.976527 1019.63438,104.085938 L980.054297,107.982422 C979.028901,104.496076 977.319934,101.932625 974.927344,100.291992 C971.646077,98.1044812 967.681273,97.0107422 963.032813,97.0107422 C958.315992,97.0107422 954.880968,97.8481362 952.727637,99.5229492 C950.574306,101.197762 949.497656,103.231433 949.497656,105.624023 C949.497656,108.290052 950.86483,110.306634 953.599219,111.673828 C956.333608,113.041022 962.280814,114.271479 971.441016,115.365234 C985.318038,116.937508 995.640201,119.124986 1002.40781,121.927734 C1009.17542,124.730483 1014.3536,128.729466 1017.94248,133.924805 C1021.53137,139.120143 1023.32578,144.828094 1023.32578,151.048828 C1023.32578,157.337922 1021.42883,163.456025 1017.63486,169.40332 C1013.8409,175.350616 1007.85951,180.084455 999.690527,183.60498 C991.521541,187.125506 980.396164,188.885742 966.314063,188.885742 C946.421385,188.885742 932.254046,186.048856 923.811621,180.375 C915.369196,174.701144 909.95177,166.634818 907.55918,156.175781 Z M1092.26504,36 L1092.26504,77.4257812 L1115.23379,77.4257812 L1115.23379,107.879883 L1092.26504,107.879883 L1092.26504,146.537109 C1092.26504,151.18557 1092.70937,154.261711 1093.59805,155.765625 C1094.96524,158.089855 1097.3578,159.251953 1100.77578,159.251953 C1103.85197,159.251953 1108.15857,158.36329 1113.6957,156.585938 L1116.77188,185.399414 C1106.44956,187.655285 1096.81098,188.783203 1087.85586,188.783203 C1077.46518,188.783203 1069.80901,187.450209 1064.88711,184.78418 C1059.96521,182.118151 1056.32511,178.067898 1053.9667,172.633301 C1051.60829,167.198703 1050.4291,158.397522 1050.4291,146.229492 L1050.4291,107.879883 L1035.04824,107.879883 L1035.04824,77.4257812 L1050.4291,77.4257812 L1050.4291,57.4306641 L1092.26504,36 Z M1128.69941,132.181641 C1128.69941,115.570229 1134.30483,101.881401 1145.51582,91.1147461 C1156.72681,80.3480907 1171.86826,74.9648438 1190.94063,74.9648438 C1212.74737,74.9648438 1229.22182,81.2880227 1240.36445,93.9345703 C1249.31958,104.120168 1253.79707,116.663988 1253.79707,131.566406 C1253.79707,148.314537 1248.24293,162.037544 1237.13447,172.73584 C1226.02602,183.434136 1210.6624,188.783203 1191.04316,188.783203 C1173.54308,188.783203 1159.39283,184.339888 1148.59199,175.453125 C1135.33021,164.447211 1128.69941,150.023527 1128.69941,132.181641 Z M1170.53535,132.079102 C1170.53535,141.786181 1172.50066,148.963844 1176.43135,153.612305 C1180.36203,158.260765 1185.30095,160.584961 1191.24824,160.584961 C1197.2639,160.584961 1202.20281,158.294945 1206.06514,153.714844 C1209.92746,149.134743 1211.85859,141.786183 1211.85859,131.668945 C1211.85859,122.235304 1209.91037,115.211449 1206.01387,110.597168 C1202.11736,105.982887 1197.29808,103.675781 1191.55586,103.675781 C1185.47184,103.675781 1180.44748,106.017066 1176.48262,110.699707 C1172.51775,115.382348 1170.53535,122.508741 1170.53535,132.079102 Z M1272.59473,77.4257812 L1311.45703,77.4257812 L1311.45703,95.1650391 C1317.26761,87.9189091 1323.14645,82.7407382 1329.09375,79.6303711 C1335.04105,76.520004 1342.28707,74.9648438 1350.83203,74.9648438 C1362.38482,74.9648438 1371.42526,78.399868 1377.95361,85.2700195 C1384.48197,92.1401711 1387.74609,102.752858 1387.74609,117.108398 L1387.74609,186.322266 L1345.80762,186.322266 L1345.80762,126.439453 C1345.80762,119.603481 1344.54298,114.767104 1342.01367,111.930176 C1339.48436,109.093248 1335.92971,107.674805 1331.34961,107.674805 C1326.29099,107.674805 1322.18947,109.588848 1319.04492,113.416992 C1315.90038,117.245136 1314.32813,124.115185 1314.32813,134.027344 L1314.32813,186.322266 L1272.59473,186.322266 L1272.59473,77.4257812 Z" id="Boston-Copy-2"></path>
            </g>
        </g>
    </g>
</svg>